<svg xmlns="http://www.w3.org/2000/svg" viewBox="0 0 100 100"><path fill="#fefdef" d="M28,11c-4.418,0-8,3.582-8,8v63c0,4.418,3.582,8,8,8h44c4.418,0,8-3.582,8-8V30L61,11H39v-1H28L28,11	z"></path><path fill="#1f212b" d="M60.5,12H39c-0.553,0-1-0.448-1-1s0.447-1,1-1h21.5V12z"></path><path fill="#1f212b" d="M72,91H28c-4.963,0-9-4.038-9-9V19c0-4.962,4.037-9,9-9c0.553,0,1,0.448,1,1s-0.447,1-1,1	c-3.859,0-7,3.14-7,7v63c0,3.86,3.141,7,7,7h44c3.859,0,7-3.14,7-7V30.5h2V82C81,86.962,76.963,91,72,91z"></path><path fill="#fef6aa" d="M80.5,30.5H69c-4.694,0-8.5-3.806-8.5-8.5V10.5l0,0L80.5,30.5z"></path><path fill="#1f212b" d="M80.5,31H69c-4.963,0-9-4.038-9-9V10.5c0-0.202,0.122-0.385,0.309-0.462	c0.186-0.077,0.402-0.034,0.545,0.108l20,20c0.143,0.143,0.186,0.358,0.108,0.545S80.702,31,80.5,31z M61,11.707V22	c0,4.411,3.589,8,8,8h10.293L61,11.707z"></path><path fill="#1f212b" d="M35,29c-2.757,0-5-2.243-5-5V12.5c0-1.93,1.57-3.5,3.5-3.5s3.5,1.57,3.5,3.5V24c0,1.103-0.897,2-2,2	s-2-0.897-2-2v-9.5c0-0.276,0.224-0.5,0.5-0.5s0.5,0.224,0.5,0.5V24c0,0.551,0.448,1,1,1s1-0.449,1-1V12.5	c0-1.378-1.121-2.5-2.5-2.5S31,11.122,31,12.5V24c0,2.206,1.794,4,4,4s4-1.794,4-4v-9.5c0-0.276,0.224-0.5,0.5-0.5	s0.5,0.224,0.5,0.5V24C40,26.757,37.757,29,35,29z"></path><path fill="#1f212b" d="M67.5,85h-35c-4.136,0-7.5-3.364-7.5-7.5v-54c0-2.446,1.201-4.745,3.214-6.15	c0.224-0.156,0.536-0.103,0.696,0.124c0.158,0.226,0.103,0.538-0.124,0.696C27.042,19.388,26,21.38,26,23.5v54	c0,3.584,2.916,6.5,6.5,6.5h35c3.584,0,6.5-2.916,6.5-6.5v-17c0-0.276,0.224-0.5,0.5-0.5s0.5,0.224,0.5,0.5v17	C75,81.636,71.636,85,67.5,85z"></path><path fill="#1f212b" d="M74.5,59c-0.276,0-0.5-0.224-0.5-0.5v-7c0-0.276,0.224-0.5,0.5-0.5s0.5,0.224,0.5,0.5v7	C75,58.776,74.776,59,74.5,59z"></path><path fill="#1f212b" d="M74.5,50.072c-0.276,0-0.5-0.224-0.5-0.5V46.5c0-0.276,0.224-0.5,0.5-0.5s0.5,0.224,0.5,0.5v3.072	C75,49.849,74.776,50.072,74.5,50.072z"></path><path fill="#1f212b" d="M52.5,46h-22c-0.276,0-0.5-0.224-0.5-0.5s0.224-0.5,0.5-0.5h22c0.276,0,0.5,0.224,0.5,0.5	S52.776,46,52.5,46z"></path><path fill="#1f212b" d="M43.5,53h-13c-0.276,0-0.5-0.224-0.5-0.5s0.224-0.5,0.5-0.5h13c0.276,0,0.5,0.224,0.5,0.5	S43.776,53,43.5,53z"></path><path fill="#1f212b" d="M47.5,60h-17c-0.276,0-0.5-0.224-0.5-0.5s0.224-0.5,0.5-0.5h17c0.276,0,0.5,0.224,0.5,0.5	S47.776,60,47.5,60z"></path><path fill="#1f212b" d="M49.5,60c-0.276,0-0.5-0.224-0.5-0.5c0-0.276,0.224-0.5,0.5-0.5l12,0c0.276,0,0.5,0.224,0.5,0.5	c0,0.276-0.224,0.5-0.5,0.5L49.5,60z"></path><path fill="#1f212b" d="M69.5,53h-24c-0.276,0-0.5-0.224-0.5-0.5s0.224-0.5,0.5-0.5h24c0.276,0,0.5,0.224,0.5,0.5	S69.776,53,69.5,53z"></path><path fill="#1f212b" d="M50.501,78c-0.155,0-0.308-0.071-0.405-0.206c-0.162-0.223-0.113-0.536,0.11-0.699	c0.018-0.013,0.723-0.535,1.587-1.428c-1.116-1.22-1.771-3.041-1.771-4.431c0-2.79,1.625-5.237,3.479-5.237c0.934,0,2.5,0.39,2.5,3	c0,2.696-1.417,5.002-2.773,6.593C53.617,75.849,54.046,76,54.5,76c3.476,0,4.916-2.878,5.777-4.598	C60.729,70.498,60.979,70,61.5,70c0.615,0,0.996,0.716,1.617,1.98c0.157,0.321,0.381,0.777,0.522,0.99	c0.314-0.117,0.78-0.563,1.197-0.963C65.77,71.113,66.931,70,68.5,70c0.276,0,0.5,0.224,0.5,0.5S68.776,71,68.5,71	c-1.167,0-2.126,0.919-2.971,1.729C64.818,73.411,64.204,74,63.5,74c-0.507,0-0.781-0.561-1.281-1.579	c-0.176-0.358-0.47-0.957-0.684-1.268c-0.109,0.187-0.246,0.46-0.364,0.696C60.271,73.649,58.593,77,54.5,77	c-0.722,0-1.379-0.25-1.953-0.659c-0.914,0.945-1.673,1.505-1.753,1.563C50.705,77.969,50.603,78,50.501,78z M53.5,67	c-1.146,0-2.479,1.851-2.479,4.237c0,1.146,0.559,2.672,1.447,3.685C53.711,73.459,55,71.37,55,69C55,67.228,54.198,67,53.5,67z"></path></svg>