<?xml version="1.0" encoding="iso-8859-1"?>
<!-- Generator: Adobe Illustrator 19.0.0, SVG Export Plug-In . SVG Version: 6.00 Build 0)  -->
<svg version="1.1" id="Layer_1" xmlns="http://www.w3.org/2000/svg" xmlns:xlink="http://www.w3.org/1999/xlink" x="0px" y="0px"
	 viewBox="0 0 512 512" style="enable-background:new 0 0 512 512;" xml:space="preserve">
<g>
	<g>
		<path d="M510.631,463.553L264.83,38.239c-1.823-3.154-5.188-5.096-8.83-5.096c-3.642,0-7.008,1.942-8.83,5.096L1.368,463.553
			c-1.824,3.156-1.825,7.045-0.003,10.201c1.822,3.157,5.189,5.102,8.834,5.102h491.602c3.644,0,7.012-1.944,8.833-5.102
			C512.456,470.598,512.455,466.709,510.631,463.553z M27.873,458.458L256,63.726l228.127,394.732H27.873z"/>
	</g>
</g>
<g>
	<g>
		<path d="M152.695,293.065c-4.876-2.819-11.116-1.15-13.934,3.727l-4.127,7.139c-2.818,4.877-1.15,11.115,3.727,13.934
			c1.607,0.929,3.363,1.371,5.094,1.371c3.523,0,6.95-1.827,8.84-5.098l4.127-7.139C159.24,302.122,157.572,295.884,152.695,293.065
			z"/>
	</g>
</g>
<g>
	<g>
		<path d="M125.58,339.983c-4.877-2.818-11.115-1.151-13.934,3.727l-50.103,86.693c-2.818,4.877-1.15,11.115,3.727,13.934
			c1.608,0.928,3.363,1.37,5.094,1.37c3.523,0,6.95-1.828,8.84-5.097l50.103-86.693C132.125,349.04,130.458,342.802,125.58,339.983z
			"/>
	</g>
</g>
<g>
	<g>
		<path d="M256,359.579c-20.933,0-37.963,17.031-37.963,37.964c0,20.933,17.031,37.963,37.963,37.963s37.964-17.031,37.964-37.963
			C293.964,376.61,276.933,359.579,256,359.579z M256,415.108c-9.686,0-17.565-7.88-17.565-17.565s7.879-17.565,17.565-17.565
			c9.686,0,17.566,7.88,17.566,17.565S265.686,415.108,256,415.108z"/>
	</g>
</g>
<g>
	<g>
		<path d="M271.673,165.227h-31.346c-12.291,0-22.29,9.999-22.29,22.29v139.192c0,12.291,9.999,22.29,22.29,22.29h31.346
			c12.291,0,22.291-10,22.29-22.29V187.518C293.963,175.227,283.964,165.227,271.673,165.227z M273.565,326.709
			c0,1.043-0.849,1.892-1.892,1.892h-31.346c-1.043,0-1.892-0.849-1.892-1.892V187.518c0-1.043,0.849-1.892,1.892-1.892h31.346
			c1.043,0,1.892,0.849,1.892,1.892V326.709z"/>
	</g>
</g>
<g>
</g>
<g>
</g>
<g>
</g>
<g>
</g>
<g>
</g>
<g>
</g>
<g>
</g>
<g>
</g>
<g>
</g>
<g>
</g>
<g>
</g>
<g>
</g>
<g>
</g>
<g>
</g>
<g>
</g>
</svg>
