<svg width="25" height="25" viewBox="0 0 25 25" fill="none" xmlns="http://www.w3.org/2000/svg">
<circle cx="12.5" cy="12.5" r="3.13636" stroke="white" stroke-width="2" stroke-linecap="round" stroke-linejoin="round"/>
<path fill-rule="evenodd" clip-rule="evenodd" d="M20.2364 15.6364C19.9516 16.2815 20.0883 17.035 20.5814 17.5391L20.6441 17.6018C21.0367 17.994 21.2573 18.5262 21.2573 19.0811C21.2573 19.6361 21.0367 20.1683 20.6441 20.5605C20.2519 20.9531 19.7197 21.1737 19.1648 21.1737C18.6098 21.1737 18.0776 20.9531 17.6855 20.5605L17.6227 20.4977C17.1186 20.0046 16.3651 19.868 15.72 20.1527C15.0881 20.4236 14.6773 21.0438 14.6745 21.7314V21.9091C14.6745 23.0639 13.7384 24 12.5836 24C11.4289 24 10.4927 23.0639 10.4927 21.9091V21.815C10.4762 21.1069 10.0284 20.4809 9.36364 20.2364C8.7185 19.9516 7.96501 20.0883 7.46091 20.5814L7.39818 20.6441C7.00599 21.0367 6.47381 21.2573 5.91886 21.2573C5.36392 21.2573 4.83173 21.0367 4.43955 20.6441C4.04692 20.2519 3.82631 19.7197 3.82631 19.1648C3.82631 18.6098 4.04692 18.0776 4.43955 17.6855L4.50227 17.6227C4.99538 17.1186 5.132 16.3651 4.84727 15.72C4.57643 15.0881 3.95617 14.6773 3.26864 14.6745H3.09091C1.93613 14.6745 1 13.7384 1 12.5836C1 11.4289 1.93613 10.4927 3.09091 10.4927H3.185C3.89312 10.4762 4.51914 10.0284 4.76364 9.36364C5.04836 8.7185 4.91174 7.96501 4.41864 7.46091L4.35591 7.39818C3.96328 7.00599 3.74267 6.47381 3.74267 5.91886C3.74267 5.36392 3.96328 4.83173 4.35591 4.43955C4.7481 4.04692 5.28028 3.82631 5.83523 3.82631C6.39017 3.82631 6.92236 4.04692 7.31455 4.43955L7.37727 4.50227C7.88138 4.99538 8.63486 5.132 9.28 4.84727H9.36364C9.99558 4.57643 10.4063 3.95617 10.4091 3.26864V3.09091C10.4091 1.93613 11.3452 1 12.5 1C13.6548 1 14.5909 1.93613 14.5909 3.09091V3.185C14.5937 3.87254 15.0044 4.49279 15.6364 4.76364C16.2815 5.04836 17.035 4.91174 17.5391 4.41864L17.6018 4.35591C17.994 3.96328 18.5262 3.74267 19.0811 3.74267C19.6361 3.74267 20.1683 3.96328 20.5605 4.35591C20.9531 4.7481 21.1737 5.28028 21.1737 5.83523C21.1737 6.39017 20.9531 6.92236 20.5605 7.31455L20.4977 7.37727C20.0046 7.88138 19.868 8.63486 20.1527 9.28V9.36364C20.4236 9.99558 21.0438 10.4063 21.7314 10.4091H21.9091C23.0639 10.4091 24 11.3452 24 12.5C24 13.6548 23.0639 14.5909 21.9091 14.5909H21.815C21.1275 14.5937 20.5072 15.0044 20.2364 15.6364Z" stroke="white" stroke-width="2" stroke-linecap="round" stroke-linejoin="round"/>
</svg>
