<svg version="1.2" xmlns="http://www.w3.org/2000/svg" viewBox="0 0 798 330" width="798" height="330">
	<title>Logo Whistleblower Service-svg</title>
	<style>
		.s0 { fill: #363f4f } 
		.s1 { fill: #cc8f33 } 
	</style>
	<path id="Layer" fill-rule="evenodd" class="s0" d="m210.8 277.5c-19.1 22.4-41.1 39.5-63.1 47.8c-22.1-8.3-44-25.4-63.2-47.8c-54.2-62.9-87.1-164.2-70.7-240c40.7-18.7 84.9-25.7 133.9-27.5c7.6 0 30.5 2 30.5 2c36.9 2.8 73.1 11.5 103.3 25.4l0.9 4c14.3 74.3-18.2 174.5-71.6 236.1zm-63.1 30.2c52.1-25.9 87-85.5 106.1-141.3c13.5-40.1 19.1-82.1 13.6-117.5c-22.4-9.6-48.5-15.9-75.6-19.4c0 0-33.1-3-44.1-3c-46.7 1.8-81.4 6.6-119.7 22.4c-5.6 35.4 0.1 77.4 13.5 117.4c19.1 55.9 54 115.5 106.2 141.4z" />
	<path id="Layer" fill-rule="evenodd" class="s0" d="m210.8 277.5c-19.1 22.4-41.1 39.5-63.1 47.8c-22.1-8.3-44-25.4-63.2-47.8c-54.2-62.9-87.1-164.2-70.7-240c40.7-18.7 84.9-25.7 133.9-27.5c7.6 0 30.5 2 30.5 2c36.9 2.8 73.1 11.5 103.3 25.4l0.9 4c14.3 74.3-18.2 174.5-71.6 236.1zm-63.1 30.2c52.1-25.9 87-85.5 106.1-141.3c13.5-40.1 19.1-82.1 13.6-117.5c-22.4-9.6-48.5-15.9-75.6-19.4c0 0-33.1-3-44.1-3c-46.7 1.8-81.4 6.6-119.7 22.4c-5.6 35.4 0.1 77.4 13.5 117.4c19.1 55.9 54 115.5 106.2 141.4z" />
	<path id="Layer" class="s1" d="m260.2 84.6c-0.8 24.7-5.9 51.7-15 78.9c-10.1 29.7-23.8 57.2-39.5 79.6c-17.3 24.6-36.8 42.9-58.1 54.4c-21.3-11.5-40.8-29.8-58.1-54.4c-15.7-22.4-29.3-49.9-39.5-79.6c-9.1-27.3-14.1-54.3-15-78.9c9.2 4 14.1 14.2 19.6 31.3l40.1 120.2h19.4c0 0 31.7-96.5 33.6-104c1.8 7.5 33.6 104 33.6 104h19.4l40.1-120.2c5.5-17.1 10.4-27.3 19.4-31.3z" />
	<path id="Layer" class="s1" d="m73.8 77.3h-38.9q0-2.7 0.1-5.5q0-2.8 0.2-5.5q0.1-2.8 0.4-5.6q0.2-2.7 0.5-5.5c36.6-14.3 70.1-18.2 111.7-19.7c10.7 0.1 42.9 3 43.2 3h0.2c25.5 3.3 48.3 8.9 68 16.7q0.3 2.8 0.5 5.6q0.3 2.7 0.4 5.5q0.2 2.8 0.3 5.5q0 2.8 0 5.6h-38.9l-23.6 82.6c-1.6 5.5-5.3 17.9-6.7 25.7c-1.7-7.8-5.3-19.8-7.2-25.7l-25.3-82.6h-22l-25.4 82.6c-1.9 5.9-5.5 17.9-7.2 25.7c-1.4-7.8-5.1-20.2-6.7-25.7l-23.6-82.6z" />
	<path id="Layer" class="s1" d="m379.8 102.6l-13.7 36.9h-5.9l-7.2-19.2q-0.3-0.8-0.5-1.6q-0.3-0.9-0.6-1.7q-0.3-0.8-0.5-1.7q-0.2-0.8-0.5-1.6q-0.2 0.8-0.4 1.6q-0.3 0.9-0.5 1.7q-0.3 0.8-0.6 1.6q-0.3 0.8-0.6 1.6l-6.9 19.3h-6.1l-10.8-28.4c-1.6-4.2-2.6-6.7-5.3-7.6v-0.9h11l6.6 19.1q0.3 0.8 0.5 1.7q0.3 0.8 0.5 1.6q0.3 0.8 0.5 1.7q0.2 0.8 0.4 1.6q0.2-0.8 0.5-1.6q0.2-0.9 0.5-1.7q0.2-0.8 0.5-1.6q0.3-0.9 0.6-1.7l7.1-19.1h6l7 19.1q0.3 0.8 0.6 1.7q0.3 0.8 0.6 1.6q0.2 0.8 0.5 1.7q0.2 0.8 0.4 1.6c0.4-1.8 1.5-5.1 2-6.6l6.5-19.1z" />
	<path id="Layer" class="s1" d="m417.6 139.5h-7.4v-15.9h-17.5v15.9h-7.4v-28.4c0-4.1-0.4-6.7-3-7.6v-0.9h10.4v15.4h17.5v-15.4h7.4z" />
	<path id="Layer" class="s1" d="m435.3 139.5h-7.5v-28.4c0-4.1-0.4-6.7-2.9-7.6v-0.9h10.4z" />
	<path id="Layer" class="s1" d="m465.2 129.6c-0.3 7.7-6.6 10.7-12.8 10.7q-1.2 0-2.5-0.1q-1.2-0.1-2.5-0.5q-1.2-0.3-2.3-0.8q-1.2-0.6-2.3-1.3v-7.4q0.9 1 2 1.8q1.1 0.7 2.3 1.3q1.2 0.5 2.5 0.8q1.3 0.3 2.6 0.3c3.1 0 5.5-1.2 5.8-3.9q0 0 0.1-0.1q0-0.1 0-0.2q0-0.1 0-0.1q-0.1-0.1-0.1-0.2c0-2.7-2.5-4.1-6.7-6.4c-4.4-2.4-8.7-5-8.7-11.3v-0.7c0.4-7.1 7.2-9.7 12.1-9.7c3.5 0 6.6 0.7 8.8 2.4v7q-0.8-0.8-1.8-1.4q-0.9-0.6-2-1.1q-1.1-0.4-2.2-0.6q-1.1-0.2-2.3-0.2c-3.3 0-5.1 1.3-5.3 3.3q0 0 0 0q0 0.1 0 0.1q0 0.1 0 0.1q0 0 0 0.1c0 2.2 2.1 4 5.8 6c4.7 2.6 9.5 5.2 9.5 11.6z" />
	<path id="Layer" class="s1" d="m495.7 108.2h-10.9v31.3h-7.4v-31.3h-10.9v-5.6h29.2z" />
	<path id="Layer" class="s1" d="m522.2 139.5h-22.1v-28.4c0-4.1-0.4-6.6-3-7.6v-0.9h10.4v31.3h14.7z" />
	<path id="Layer" class="s1" d="m550.9 139.5h-23.2v-28.4c0-4.1-0.4-6.6-3-7.6v-0.9h25.7v5.7h-15.3v9.8h14.8v5.4h-14.8v10.4h15.8z" />
	<path id="Layer" fill-rule="evenodd" class="s1" d="m573 139.5h-14v-28.4c0-4.1-0.4-6.7-3-7.6v-0.9h15.4c8.6 0 11.8 5.2 11.8 9.5c0 3.4-1.6 6.4-4.5 7.5c5 1.3 7.1 4.6 7.1 9.3c0.1 5.2-4.4 10.6-12.8 10.6zm-6.6-31.7v10.1h3.8c4.3 0 5.7-2.6 5.7-5c0-2.5-1.4-5.1-5.7-5.1zm0 15.1v11.4h4.7c5.2 0 6.9-2.9 6.9-5.7c0-2.7-1.7-5.7-6.9-5.7z" />
	<path id="Layer" class="s1" d="m614.9 139.5h-22.1v-28.4c0-4.1-0.4-6.6-3-7.6v-0.9h10.3v31.3h14.8z" />
	<path id="Layer" fill-rule="evenodd" class="s1" d="m635.9 140.3c-11.9 0-20.5-8.3-20.5-19.3c0-10.9 8.6-19.2 20.6-19.2c12.1 0 20.7 8.1 20.7 19.2c0 9.6-6.9 19.3-20.8 19.3zm0.2-32.8c-7.3 0-12.5 5.7-12.5 13.5c0 7.9 5.3 13.6 12.5 13.6c7.3 0 12.5-5.7 12.5-13.6c0-7.8-5.2-13.5-12.5-13.5z" />
	<path id="Layer" class="s1" d="m716.3 102.6l-13.8 36.9h-5.9l-7.1-19.2c-0.6-1.6-1.7-4.8-2.1-6.6q-0.2 0.8-0.5 1.6q-0.2 0.9-0.5 1.7q-0.2 0.8-0.5 1.6q-0.3 0.8-0.6 1.7l-6.9 19.2h-6.2l-10.7-28.4c-1.6-4.2-2.7-6.7-5.4-7.6v-0.9h11l6.6 19.1q0.3 0.8 0.6 1.7q0.3 0.8 0.5 1.6q0.3 0.8 0.5 1.7q0.2 0.8 0.4 1.6q0.2-0.8 0.5-1.6q0.2-0.9 0.5-1.7q0.3-0.8 0.5-1.6q0.3-0.9 0.6-1.7l7.2-19.1h5.9l7 19.1q0.3 0.8 0.6 1.7q0.3 0.8 0.6 1.6q0.2 0.8 0.5 1.7q0.2 0.8 0.4 1.6c0.4-1.8 1.5-5.1 2-6.6l6.6-19.1z" />
	<path id="Layer" class="s1" d="m744.9 139.5h-23.2v-28.4c0-4.1-0.3-6.6-3-7.6v-0.9h25.7v5.7h-15.2v9.8h14.7v5.4h-14.7v10.4h15.7z" />
	<path id="Layer" fill-rule="evenodd" class="s1" d="m783.3 139.5h-8.2l-4.8-7.6c-4.6-7.4-6.3-8-8.8-8h-1.1v15.6h-7.4v-28.4c0-4.1-0.4-6.7-3-7.6v-0.9h14.4c7.6 0 12.3 4 12.3 10.6q0 1.4-0.4 2.7q-0.5 1.3-1.2 2.5q-0.8 1.1-1.9 2q-1.1 0.8-2.4 1.3c2.4 1.8 4.1 4.5 6.1 7.5l1.4 2.1zm-20.3-31.4h-2.5v10.7h2.5c3.6 0 6.2-1.8 6.2-5.4c0-3.6-2.6-5.3-6.2-5.3z" />
	<path id="Layer" class="s0" d="m369.3 214.1c-0.7 17-14.6 23.7-28.3 23.7c-6.6 0-14.6-1.1-21.3-5.9v-16.5c6.6 6.7 13.8 9.2 20.7 9.2c6.9 0 12.2-2.7 13-8.5q0-0.2 0.1-0.3q0-0.2 0-0.4q0-0.2 0-0.3q0-0.2 0-0.4c0-6.1-5.7-9.1-15-14.3c-9.7-5.2-19.3-11.1-19.3-25v-1.5c0.8-15.8 16-21.5 26.9-21.5c7.7 0 14.6 1.6 19.4 5.4v15.4q-1.8-1.8-3.9-3.2q-2.1-1.4-4.4-2.3q-2.4-1-4.9-1.4q-2.5-0.5-5-0.5c-7.4 0-11.5 2.8-11.8 7.3q-0.1 0.1-0.1 0.2q0 0 0 0.1q0 0.1 0 0.2q0 0.1 0 0.2c0 5 4.8 8.8 13 13.3c10.4 5.9 20.9 11.6 20.9 25.8z" />
	<path id="Layer" class="s0" d="m436.4 236h-51.4v-62.9c0-9.2-0.8-14.8-6.5-16.9v-2h57v12.5h-34v21.8h32.7v12.1h-32.7v22.9h35z" />
	<path id="Layer" fill-rule="evenodd" class="s0" d="m521.5 236h-18.1l-10.7-17c-10.3-16.4-14-17.7-19.5-17.7h-2.4v34.7h-16.5v-63.1c0-9-0.8-14.7-6.5-16.7v-2h32c16.7 0 27.1 8.9 27.1 23.4c0 8.4-5 15.6-13 19c5.3 4 9.1 9.8 13.5 16.4l3 4.7zm-45-69.6h-5.6v23.8h5.6c7.9 0 13.8-4 13.8-12c0-7.9-5.9-11.8-13.9-11.8z" />
	<path id="Layer" class="s0" d="m598.7 154.2l-31.1 81.8h-17l-25.8-62.9c-3.7-9.3-6.6-14.9-12.6-16.9v-2h24.2l21.3 54.9c0.6 1.5 1.5 5 2.1 6.9q0.2-0.9 0.4-1.7q0.2-0.9 0.4-1.7q0.3-0.9 0.5-1.7q0.3-0.9 0.6-1.7l19.3-55z" />
	<path id="Layer" class="s0" d="m628.5 236h-16.5v-62.9c0-9.2-0.8-14.9-6.5-16.9v-2h23z" />
	<path id="Layer" class="s0" d="m715.8 231.3c-6.8 4.3-14.9 6.6-26.2 6.6c-27.2 0-46.5-17.7-46.5-42.9c0-25.1 19.3-42.6 46.5-42.6c11.3 0 19.4 2.2 26.2 6.5v15.8c-8-6.6-15.6-9.4-26.2-9.4c-17 0-28.4 12.8-28.4 29.8c0 16.9 11.4 29.8 28.4 29.8c10.6 0 18.2-2.8 26.2-9.4z" />
	<path id="Layer" class="s0" d="m784.3 236h-51.4v-62.9c0-9.2-0.9-14.8-6.6-16.9v-2h57v12.5h-34v21.8h32.8v12.1h-32.8v22.9h35z" />
</svg>