<svg xmlns="http://www.w3.org/2000/svg" xmlns:xlink="http://www.w3.org/1999/xlink" version="1.1" width="256" height="256" viewBox="0 0 256 256" xml:space="preserve">
<desc>Created with Fabric.js 1.7.22</desc>
<defs>
</defs>
<g transform="translate(128 128) scale(0.72 0.72)" style="">
	<g style="stroke: none; stroke-width: 0; stroke-dasharray: none; stroke-linecap: butt; stroke-linejoin: miter; stroke-miterlimit: 10; fill: none; fill-rule: nonzero; opacity: 1;" transform="translate(-175.05 -175.05000000000004) scale(3.89 3.89)" >
	<path d="M 19.762 56.079 c -3.749 0 -6.799 -3.05 -6.799 -6.8 c 0 -3.749 3.05 -6.799 6.799 -6.799 s 6.799 3.05 6.799 6.799 C 26.561 53.029 23.511 56.079 19.762 56.079 z M 19.762 44.474 c -2.649 0 -4.805 2.156 -4.805 4.805 c 0 2.65 2.156 4.806 4.805 4.806 c 2.65 0 4.805 -2.156 4.805 -4.806 C 24.567 46.63 22.412 44.474 19.762 44.474 z" style="stroke: none; stroke-width: 1; stroke-dasharray: none; stroke-linecap: butt; stroke-linejoin: miter; stroke-miterlimit: 10; fill: rgb(0,0,0); fill-rule: nonzero; opacity: 1;" transform=" matrix(1 0 0 1 0 0) " stroke-linecap="round" />
	<path d="M 22.594 77.725 c -2.23 0 -4.045 -1.814 -4.045 -4.044 c 0 -2.23 1.814 -4.045 4.045 -4.045 s 4.045 1.815 4.045 4.045 C 26.639 75.912 24.824 77.725 22.594 77.725 z M 22.594 71.63 c -1.131 0 -2.051 0.92 -2.051 2.051 c 0 1.13 0.92 2.05 2.051 2.05 c 1.131 0 2.051 -0.92 2.051 -2.05 C 24.645 72.55 23.725 71.63 22.594 71.63 z" style="stroke: none; stroke-width: 1; stroke-dasharray: none; stroke-linecap: butt; stroke-linejoin: miter; stroke-miterlimit: 10; fill: rgb(0,0,0); fill-rule: nonzero; opacity: 1;" transform=" matrix(1 0 0 1 0 0) " stroke-linecap="round" />
	<path d="M 34.416 33.608 c -2.23 0 -4.045 -1.815 -4.045 -4.045 s 1.815 -4.045 4.045 -4.045 s 4.045 1.814 4.045 4.045 S 36.646 33.608 34.416 33.608 z M 34.416 27.512 c -1.131 0 -2.051 0.92 -2.051 2.051 c 0 1.131 0.92 2.051 2.051 2.051 c 1.131 0 2.051 -0.92 2.051 -2.051 C 36.467 28.432 35.547 27.512 34.416 27.512 z" style="stroke: none; stroke-width: 1; stroke-dasharray: none; stroke-linecap: butt; stroke-linejoin: miter; stroke-miterlimit: 10; fill: rgb(0,0,0); fill-rule: nonzero; opacity: 1;" transform=" matrix(1 0 0 1 0 0) " stroke-linecap="round" />
	<path d="M 70.237 56.079 c -3.748 0 -6.799 -3.05 -6.799 -6.8 c 0 -3.749 3.05 -6.799 6.799 -6.799 c 3.749 0 6.8 3.05 6.8 6.799 C 77.037 53.029 73.986 56.079 70.237 56.079 z M 70.237 44.474 c -2.649 0 -4.805 2.156 -4.805 4.805 c 0 2.65 2.156 4.806 4.805 4.806 c 2.65 0 4.806 -2.156 4.806 -4.806 C 75.043 46.63 72.887 44.474 70.237 44.474 z" style="stroke: none; stroke-width: 1; stroke-dasharray: none; stroke-linecap: butt; stroke-linejoin: miter; stroke-miterlimit: 10; fill: rgb(0,0,0); fill-rule: nonzero; opacity: 1;" transform=" matrix(1 0 0 1 0 0) " stroke-linecap="round" />
	<path d="M 67.406 77.725 c -2.23 0 -4.045 -1.814 -4.045 -4.044 c 0 -2.23 1.815 -4.045 4.045 -4.045 c 2.23 0 4.044 1.815 4.044 4.045 C 71.45 75.912 69.637 77.725 67.406 77.725 z M 67.406 71.63 c -1.131 0 -2.051 0.92 -2.051 2.051 c 0 1.13 0.92 2.05 2.051 2.05 c 1.13 0 2.05 -0.92 2.05 -2.05 C 69.456 72.55 68.536 71.63 67.406 71.63 z" style="stroke: none; stroke-width: 1; stroke-dasharray: none; stroke-linecap: butt; stroke-linejoin: miter; stroke-miterlimit: 10; fill: rgb(0,0,0); fill-rule: nonzero; opacity: 1;" transform=" matrix(1 0 0 1 0 0) " stroke-linecap="round" />
	<path d="M 55.585 33.608 c -2.23 0 -4.045 -1.815 -4.045 -4.045 s 1.815 -4.045 4.045 -4.045 c 2.23 0 4.044 1.814 4.044 4.045 S 57.815 33.608 55.585 33.608 z M 55.585 27.512 c -1.131 0 -2.051 0.92 -2.051 2.051 c 0 1.131 0.92 2.051 2.051 2.051 c 1.13 0 2.05 -0.92 2.05 -2.051 C 57.635 28.432 56.715 27.512 55.585 27.512 z" style="stroke: none; stroke-width: 1; stroke-dasharray: none; stroke-linecap: butt; stroke-linejoin: miter; stroke-miterlimit: 10; fill: rgb(0,0,0); fill-rule: nonzero; opacity: 1;" transform=" matrix(1 0 0 1 0 0) " stroke-linecap="round" />
	<path d="M 83.135 45.475 c -2.321 -10.061 -8.28 -18.488 -16.35 -23.122 c -3.541 -2.033 -7.347 -3.248 -11.22 -3.636 c -1.163 -4.125 -4.06 -7.227 -7.613 -8.349 c 0.275 -4.595 3.516 -8.236 7.469 -8.236 c 0.551 0 0.997 -0.446 0.997 -0.997 s -0.446 -0.997 -0.997 -0.997 c -4.925 0 -8.982 4.317 -9.443 9.817 C 45.654 9.922 45.329 9.904 45 9.904 c -0.355 0 -0.705 0.024 -1.053 0.062 c -0.456 -5.506 -4.516 -9.829 -9.444 -9.829 c -0.551 0 -0.997 0.446 -0.997 0.997 s 0.446 0.997 0.997 0.997 c 3.961 0 7.206 3.656 7.47 8.264 c -3.515 1.145 -6.382 4.231 -7.537 8.322 c -3.873 0.388 -7.68 1.603 -11.221 3.635 c -8.07 4.633 -14.029 13.061 -16.35 23.122 C 2.42 64.744 12.348 84.636 28.996 89.818 l 1.026 0.319 l 1.765 -7.649 c 4.169 2.108 8.606 3.188 13.213 3.188 c 4.607 0 9.043 -1.08 13.212 -3.188 l 1.764 7.649 l 1.026 -0.319 C 77.652 84.636 87.58 64.744 83.135 45.475 z M 45 11.898 c 3.734 0 7.051 2.694 8.435 6.689 c -2.822 -0.06 -5.658 0.322 -8.435 1.153 c -2.777 -0.831 -5.613 -1.212 -8.436 -1.152 C 37.949 14.596 41.274 11.898 45 11.898 z M 28.568 87.573 c -15.055 -5.363 -23.883 -23.775 -19.76 -41.65 c 2.196 -9.522 7.81 -17.483 15.4 -21.84 c 4.054 -2.328 8.481 -3.511 12.935 -3.511 c 2.232 0 4.473 0.298 6.675 0.898 L 28.568 87.573 z M 45 83.683 c -4.452 0 -8.735 -1.085 -12.75 -3.201 L 45 25.211 l 12.75 55.271 C 53.734 82.598 49.451 83.683 45 83.683 z M 61.432 87.573 L 46.183 21.469 c 6.596 -1.799 13.524 -0.882 19.61 2.613 c 7.59 4.358 13.203 12.318 15.399 21.84 C 85.315 63.798 76.488 82.211 61.432 87.573 z" style="stroke: none; stroke-width: 1; stroke-dasharray: none; stroke-linecap: butt; stroke-linejoin: miter; stroke-miterlimit: 10; fill: rgb(0,0,0); fill-rule: nonzero; opacity: 1;" transform=" matrix(1 0 0 1 0 0) " stroke-linecap="round" />
</g>
</g>
</svg>