<svg id="Ebene_2" data-name="Ebene 2" xmlns="http://www.w3.org/2000/svg" viewBox="0 0 841.89 595.28"><defs><style>.cls-1{fill:#fff;}</style></defs><path class="cls-1" d="M306.37,171.41l-.87-4c-30.22-13.93-66.42-22.61-103.26-25.37,0,0-22.93-2-30.58-2-49,1.81-93.18,8.73-133.84,27.42-16.46,75.84,16.5,177.19,70.67,240,19.17,22.4,41.11,39.59,63.17,47.89,22.06-8.3,44-25.49,63.17-47.89C288.18,345.9,320.75,245.75,306.37,171.41ZM65.51,296.34C52.11,256.26,46.42,214.26,52,178.89c38.27-15.84,73-20.64,119.71-22.35,11,0,44.14,3,44.14,3h0c27.07,3.43,53.11,9.75,75.59,19.4,5.47,35.38-.17,77.34-13.59,117.42-19.1,55.85-54,115.43-106.14,141.32C119.51,411.78,84.62,352.19,65.51,296.34Z"/><path class="cls-1" d="M306.37,171.41l-.87-4c-30.22-13.93-66.42-22.61-103.26-25.37,0,0-22.93-2-30.58-2-49,1.81-93.18,8.73-133.84,27.42-16.46,75.84,16.5,177.19,70.67,240,19.17,22.4,41.11,39.59,63.17,47.89,22.06-8.3,44-25.49,63.17-47.89C288.18,345.9,320.75,245.75,306.37,171.41ZM65.51,296.34C52.11,256.26,46.42,214.26,52,178.89c38.27-15.84,73-20.64,119.71-22.35,11,0,44.14,3,44.14,3h0c27.07,3.43,53.11,9.75,75.59,19.4,5.47,35.38-.17,77.34-13.59,117.42-19.1,55.85-54,115.43-106.14,141.32C119.51,411.78,84.62,352.19,65.51,296.34Z"/><path class="cls-1" d="M264.75,245.9,224.66,366.1H205.28s-31.75-96.54-33.61-104c-1.86,7.5-33.6,104-33.6,104H118.69L78.6,245.9C73.07,228.8,68.18,218.59,59,214.62c.86,24.61,5.94,51.63,15,78.84,10.18,29.75,23.84,57.28,39.52,79.61,17.3,24.64,36.82,42.94,58.1,54.46,21.27-11.52,40.8-29.82,58.1-54.46,15.67-22.33,29.33-49.86,39.52-79.62,9.08-27.15,14.17-54.17,15-78.83C275.17,218.59,270.27,228.8,264.75,245.9Z"/><path class="cls-1" d="M97.8,207.39,121.43,290c1.58,5.49,5.26,17.94,6.7,25.68,1.71-7.83,5.27-19.78,7.2-25.68l25.33-82.63h22L208,290c1.93,5.9,5.49,17.85,7.2,25.68,1.43-7.74,5.12-20.19,6.69-25.68l23.64-82.63h38.9a183.84,183.84,0,0,0-1.25-22.13c-19.63-7.85-42.48-13.47-68-16.75H215c-.33,0-32.51-2.93-43.18-3-41.61,1.53-75.16,5.44-111.67,19.75a181,181,0,0,0-1.26,22.1H97.8Z"/><path class="cls-1" d="M403.84,232.64,390.07,269.5h-5.9l-7.12-19.2a69.08,69.08,0,0,1-2.11-6.64,59.48,59.48,0,0,1-2.11,6.59l-6.9,19.25h-6.17L349,241.13c-1.58-4.22-2.63-6.7-5.32-7.59v-.9h11l6.59,19.09a63.25,63.25,0,0,1,1.95,6.59,63.85,63.85,0,0,1,2.11-6.59l7.11-19.09h5.91l7.07,19.09a66.41,66.41,0,0,1,2.1,6.59c.37-1.79,1.48-5.17,1.95-6.59L396,232.64Z"/><path class="cls-1" d="M441.59,269.5h-7.43V253.57H416.7V269.5h-7.43V241.13c0-4.11-.37-6.7-2.95-7.59v-.9H416.7V248h17.46V232.64h7.43Z"/><path class="cls-1" d="M459.26,269.5h-7.44V241.13c0-4.11-.37-6.7-2.95-7.59v-.9h10.39Z"/><path class="cls-1" d="M489.21,259.64c-.32,7.64-6.59,10.65-12.76,10.65a16.32,16.32,0,0,1-9.6-2.64v-7.43a12.86,12.86,0,0,0,9.33,4.16c3.11,0,5.49-1.21,5.86-3.85a2.9,2.9,0,0,0,0-.63c0-2.74-2.58-4.11-6.75-6.43-4.38-2.37-8.7-5-8.7-11.29v-.68c.37-7.12,7.22-9.7,12.13-9.7,3.48,0,6.59.74,8.75,2.42v7a11.39,11.39,0,0,0-8.23-3.32c-3.32,0-5.16,1.27-5.32,3.27a.72.72,0,0,0-.05.32c0,2.26,2.16,4,5.85,6,4.69,2.63,9.44,5.22,9.44,11.6Z"/><path class="cls-1" d="M519.68,238.23H508.82V269.5h-7.43V238.23H490.53v-5.59h29.15Z"/><path class="cls-1" d="M546.21,269.5H524.06V241.13c0-4.11-.37-6.64-2.95-7.59v-.9H531.5v31.22h14.71Z"/><path class="cls-1" d="M574.89,269.5h-23.2V241.13c0-4.11-.37-6.64-3-7.59v-.9h25.67v5.64H559.12v9.81h14.77v5.43H559.12v10.34h15.77Z"/><path class="cls-1" d="M597,269.5H583V241.13c0-4.11-.37-6.7-3-7.59v-.9H595.4c8.65,0,11.76,5.12,11.76,9.49,0,3.38-1.53,6.33-4.48,7.49,5,1.27,7.17,4.53,7.17,9.33C609.85,264.07,605.37,269.5,597,269.5Zm-2.79-31.69h-3.8v10.12h3.8c4.32,0,5.69-2.63,5.69-5.06S598.51,237.81,594.19,237.81Zm.95,15.13h-4.75v11.39h4.75c5.16,0,6.85-2.95,6.85-5.7S600.3,252.94,595.14,252.94Z"/><path class="cls-1" d="M638.9,269.5H616.76V241.13c0-4.11-.37-6.64-3-7.59v-.9h10.38v31.22H638.9Z"/><path class="cls-1" d="M659.94,270.34c-11.92,0-20.51-8.33-20.51-19.3S648,231.8,660.05,231.8s20.66,8.07,20.66,19.24C680.71,260.64,673.81,270.34,659.94,270.34Zm.11-32.85c-7.28,0-12.5,5.7-12.5,13.55s5.33,13.55,12.5,13.55c7.32,0,12.54-5.69,12.54-13.55S667.37,237.49,660.05,237.49Z"/><path class="cls-1" d="M740.3,232.64,726.54,269.5h-5.91l-7.12-19.2c-.58-1.58-1.68-4.79-2.11-6.64a61.71,61.71,0,0,1-2.1,6.59l-6.91,19.25h-6.17l-10.76-28.37c-1.58-4.22-2.63-6.7-5.32-7.59v-.9h11l6.59,19.09a63.25,63.25,0,0,1,2,6.59,63.85,63.85,0,0,1,2.11-6.59l7.12-19.09h5.9l7.07,19.09a66.37,66.37,0,0,1,2.11,6.59c.36-1.79,1.47-5.17,2-6.59l6.53-19.09Z"/><path class="cls-1" d="M768.93,269.5h-23.2V241.13c0-4.11-.37-6.64-3-7.59v-.9h25.68v5.64H753.17v9.81h14.76v5.43H753.17v10.34h15.76Z"/><path class="cls-1" d="M807.26,269.5h-8.17l-4.8-7.65c-4.64-7.38-6.32-8-8.8-8h-1.06V269.5H777V241.08c0-4.06-.37-6.65-3-7.54v-.9h14.44c7.54,0,12.24,4,12.24,10.55a9.23,9.23,0,0,1-5.86,8.54c2.38,1.79,4.12,4.43,6.07,7.43l1.37,2.11ZM787,238.13h-2.54v10.7H787c3.58,0,6.22-1.79,6.22-5.38S790.55,238.13,787,238.13Z"/><path class="cls-1" d="M393.31,344.12c-.71,17-14.63,23.63-28.31,23.63-6.55,0-14.62-1.06-21.29-5.85V345.4c6.55,6.67,13.8,9.24,20.7,9.24s12.17-2.69,13-8.54a6.5,6.5,0,0,0,.11-1.4c0-6.08-5.73-9.12-15-14.27-9.71-5.26-19.3-11.11-19.3-25v-1.52c.82-15.8,16-21.53,26.9-21.53,7.72,0,14.63,1.64,19.42,5.38v15.44a25.27,25.27,0,0,0-18.25-7.36c-7.37,0-11.46,2.8-11.81,7.25a1.42,1.42,0,0,0-.12.7c0,5,4.8,8.77,13,13.33,10.41,5.85,20.94,11.58,20.94,25.74Z"/><path class="cls-1" d="M460.45,366H409V303.06c0-9.13-.82-14.74-6.55-16.85v-2h57v12.52H425.47V318.5h32.76v12.05H425.47v22.92h35Z"/><path class="cls-1" d="M545.49,366H527.35l-10.64-17c-10.29-16.38-14-17.66-19.54-17.66h-2.34V366H478.34V302.94c0-9-.82-14.74-6.55-16.73v-2h32c16.73,0,27.14,8.89,27.14,23.4,0,8.42-5,15.56-13,18.95,5.26,4,9.12,9.83,13.45,16.49l3,4.68Zm-45-69.6h-5.62v23.75h5.62c7.95,0,13.8-4,13.8-11.94S508.4,296.39,500.45,296.39Z"/><path class="cls-1" d="M622.69,284.22,591.57,366h-17l-25.73-62.93c-3.75-9.24-6.67-14.86-12.64-16.85v-2h24.22l21.29,54.87c.58,1.52,1.52,5,2.1,6.9a52.56,52.56,0,0,1,1.87-6.79l19.3-55Z"/><path class="cls-1" d="M652.51,366H636V303.06c0-9.13-.82-14.86-6.55-16.85v-2h23Z"/><path class="cls-1" d="M739.77,361.31c-6.78,4.33-14.85,6.55-26.2,6.55-27.14,0-46.44-17.66-46.44-42.81s19.3-42.7,46.44-42.7c11.35,0,19.42,2.23,26.2,6.55v15.79c-7.95-6.55-15.55-9.35-26.2-9.35-17,0-28.42,12.75-28.42,29.71s11.46,29.83,28.42,29.83c10.65,0,18.25-2.81,26.2-9.36Z"/><path class="cls-1" d="M808.32,366H756.85V303.06c0-9.13-.82-14.74-6.55-16.85v-2h57v12.52H773.34V318.5H806.1v12.05H773.34v22.92h35Z"/></svg>