<svg id="Ebene_1" data-name="Ebene 1" xmlns="http://www.w3.org/2000/svg" viewBox="0 0 841.89 595.28"><defs><style>.cls-1{fill:#fff;}</style></defs><path class="cls-1" d="M260.94,430.87l-12.81,34.3h-5.49L236,447.31a64.12,64.12,0,0,1-2-6.18,55.33,55.33,0,0,1-2,6.13l-6.43,17.91h-5.74l-10-26.4c-1.47-3.92-2.45-6.23-5-7.06v-.84h10.26l6.13,17.77a58.26,58.26,0,0,1,1.82,6.13,58.94,58.94,0,0,1,2-6.13l6.62-17.77h5.5l6.57,17.77a61.39,61.39,0,0,1,2,6.13c.34-1.67,1.37-4.81,1.81-6.13l6.09-17.77Z"/><path class="cls-1" d="M296.07,465.17h-6.92V450.35H272.91v14.82H266v-26.4c0-3.82-.35-6.23-2.75-7.06v-.84h9.66v14.28h16.24V430.87h6.92Z"/><path class="cls-1" d="M312.51,465.17h-6.92v-26.4c0-3.82-.34-6.23-2.74-7.06v-.84h9.66Z"/><path class="cls-1" d="M340.38,456c-.29,7.12-6.13,9.92-11.87,9.92a15.17,15.17,0,0,1-8.93-2.46v-6.91a12,12,0,0,0,8.68,3.87c2.9,0,5.11-1.13,5.45-3.58a2.56,2.56,0,0,0,.05-.59c0-2.55-2.41-3.83-6.28-6-4.07-2.21-8.1-4.67-8.1-10.51v-.63c.35-6.63,6.72-9,11.29-9,3.23,0,6.13.69,8.14,2.26v6.47a10.59,10.59,0,0,0-7.65-3.09c-3.09,0-4.81,1.18-5,3a.63.63,0,0,0-.05.3c0,2.11,2,3.68,5.45,5.59,4.37,2.45,8.78,4.86,8.78,10.8Z"/><path class="cls-1" d="M368.74,436.07h-10.1v29.1h-6.92v-29.1H341.61v-5.2h27.13Z"/><path class="cls-1" d="M393.42,465.17h-20.6v-26.4c0-3.82-.35-6.18-2.75-7.06v-.84h9.67v29.05h13.68Z"/><path class="cls-1" d="M420.12,465.17H398.53v-26.4c0-3.82-.34-6.18-2.75-7.06v-.84h23.9v5.25H405.45v9.13h13.73v5.05H405.45v9.62h14.67Z"/><path class="cls-1" d="M440.68,465.17H427.63v-26.4c0-3.82-.35-6.23-2.75-7.06v-.84h14.33c8,0,10.94,4.76,10.94,8.84,0,3.14-1.43,5.88-4.17,7,4.61,1.18,6.67,4.22,6.67,8.69C452.65,460.12,448.48,465.17,440.68,465.17Zm-2.6-29.49h-3.54v9.42h3.54c4,0,5.3-2.45,5.3-4.71S442.1,435.68,438.08,435.68Zm.88,14.08h-4.42v10.6H439c4.81,0,6.38-2.75,6.38-5.3S443.77,449.76,439,449.76Z"/><path class="cls-1" d="M479.69,465.17H459.08v-26.4c0-3.82-.34-6.18-2.75-7.06v-.84H466v29.05h13.69Z"/><path class="cls-1" d="M499.26,466c-11.08,0-19.08-7.76-19.08-18s8-17.91,19.18-17.91c11.34,0,19.24,7.51,19.24,17.91C518.6,456.93,512.17,466,499.26,466Zm.1-30.57c-6.77,0-11.63,5.3-11.63,12.61s5,12.61,11.63,12.61S511,455.31,511,448,506.18,435.39,499.36,435.39Z"/><path class="cls-1" d="M574,430.87l-12.8,34.3h-5.5l-6.62-17.86a64.12,64.12,0,0,1-2-6.18,57.47,57.47,0,0,1-2,6.13l-6.43,17.91H533l-10-26.4c-1.48-3.92-2.46-6.23-5-7.06v-.84h10.25l6.14,17.77a56,56,0,0,1,1.81,6.13,61.39,61.39,0,0,1,2-6.13l6.62-17.77h5.49l6.58,17.77a58.94,58.94,0,0,1,2,6.13c.35-1.67,1.38-4.81,1.82-6.13l6.08-17.77Z"/><path class="cls-1" d="M600.69,465.17H579.1v-26.4c0-3.82-.34-6.18-2.75-7.06v-.84h23.9v5.25H586v9.13h13.74v5.05H586v9.62h14.67Z"/><path class="cls-1" d="M636.36,465.17h-7.6l-4.47-7.11c-4.32-6.87-5.89-7.41-8.19-7.41h-1v14.52H608.2V438.72c0-3.77-.34-6.18-2.75-7v-.84h13.44c7,0,11.39,3.73,11.39,9.82a8.59,8.59,0,0,1-5.45,7.95c2.21,1.66,3.83,4.12,5.64,6.91l1.28,2ZM617.47,436h-2.35v10h2.35c3.34,0,5.79-1.67,5.79-5S620.81,436,617.47,436Z"/><path class="cls-1" d="M251.14,534.61c-.66,15.78-13.61,22-26.35,22-6.09,0-13.6-1-19.81-5.44V535.81c6.1,6.2,12.85,8.6,19.27,8.6s11.32-2.51,12.08-7.95a5.73,5.73,0,0,0,.11-1.31c0-5.66-5.33-8.49-13.93-13.28-9-4.9-18-10.34-18-23.29v-1.42c.76-14.69,14.91-20,25-20,7.19,0,13.61,1.53,18.07,5v14.37a23.5,23.5,0,0,0-17-6.86c-6.86,0-10.66,2.61-11,6.75a1.38,1.38,0,0,0-.11.65c0,4.69,4.46,8.17,12.08,12.41,9.69,5.45,19.49,10.78,19.49,23.95Z"/><path class="cls-1" d="M313.62,555h-47.9V496.4c0-8.49-.76-13.71-6.09-15.67v-1.85h53v11.64H281.07v20.25h30.48V522H281.07v21.34h32.55Z"/><path class="cls-1" d="M392.75,555H375.88L366,539.18c-9.58-15.24-13.07-16.44-18.18-16.44h-2.18V555H330.27V496.29c0-8.38-.76-13.71-6.09-15.56v-1.85H354c15.57,0,25.26,8.27,25.26,21.77,0,7.83-4.68,14.47-12.09,17.63,4.9,3.7,8.49,9.14,12.52,15.35l2.83,4.35Zm-41.9-64.77h-5.23v22.09h5.23c7.4,0,12.84-3.7,12.84-11.1S358.25,490.2,350.85,490.2Z"/><path class="cls-1" d="M464.6,478.88l-29,76.09H419.86L395.91,496.4c-3.48-8.6-6.21-13.82-11.76-15.67v-1.85h22.54l19.81,51c.54,1.41,1.41,4.68,2,6.42A46.17,46.17,0,0,1,430.2,530l18-51.16Z"/><path class="cls-1" d="M492.35,555H477V496.4c0-8.49-.76-13.82-6.09-15.67v-1.85h21.44Z"/><path class="cls-1" d="M573.56,550.61c-6.32,4-13.83,6.1-24.39,6.1-25.25,0-43.21-16.44-43.21-39.84s18-39.74,43.21-39.74c10.56,0,18.07,2.07,24.39,6.1v14.69c-7.41-6.09-14.48-8.7-24.39-8.7-15.78,0-26.45,11.86-26.45,27.65s10.67,27.75,26.45,27.75c9.91,0,17-2.61,24.39-8.7Z"/><path class="cls-1" d="M637.34,555H589.45V496.4c0-8.49-.77-13.71-6.1-15.67v-1.85h53v11.64H604.79v20.25h30.48V522H604.79v21.34h32.55Z"/><path class="cls-1" d="M575.77,74.71l-1-4.63c-34.73-16-76.34-26-118.69-29.16,0,0-26.35-2.33-35.15-2.35-56.34,2.07-107.11,10-153.84,31.51-18.92,87.17,19,203.68,81.23,275.91,22,25.75,47.25,45.51,72.61,55.05,25.36-9.54,50.58-29.3,72.61-55.05C554.86,275.29,592.3,160.17,575.77,74.71ZM298.92,218.32c-15.4-46.08-21.95-94.35-15.59-135,44-18.21,83.87-23.73,137.6-25.68,12.68,0,50.74,3.43,50.74,3.43h0c31.12,4,61,11.2,86.88,22.3,6.29,40.67-.19,88.9-15.61,135-22,64.19-62.05,132.68-122,162.44C361,351,320.88,282.51,298.92,218.32Z"/><path class="cls-1" d="M575.77,74.71l-1-4.63c-34.73-16-76.34-26-118.69-29.16,0,0-26.35-2.33-35.15-2.35-56.34,2.07-107.11,10-153.84,31.51-18.92,87.17,19,203.68,81.23,275.91,22,25.75,47.25,45.51,72.61,55.05,25.36-9.54,50.58-29.3,72.61-55.05C554.86,275.29,592.3,160.17,575.77,74.71ZM298.92,218.32c-15.4-46.08-21.95-94.35-15.59-135,44-18.21,83.87-23.73,137.6-25.68,12.68,0,50.74,3.43,50.74,3.43h0c31.12,4,61,11.2,86.88,22.3,6.29,40.67-.19,88.9-15.61,135-22,64.19-62.05,132.68-122,162.44C361,351,320.88,282.51,298.92,218.32Z"/><path class="cls-1" d="M527.93,160.34,481.85,298.5H459.57s-36.49-111-38.63-119.59c-2.13,8.62-38.62,119.59-38.62,119.59H360L314,160.34c-6.35-19.66-12-31.39-22.5-36,1,28.29,6.82,59.34,17.28,90.62,11.7,34.2,27.41,65.84,45.43,91.51,19.88,28.33,42.33,49.36,66.78,62.6,24.45-13.24,46.9-34.28,66.78-62.6,18-25.67,33.73-57.31,45.43-91.51,10.44-31.22,16.29-62.27,17.27-90.62C539.91,129,534.28,140.68,527.93,160.34Z"/><path class="cls-1" d="M336,116.07l27.17,95c1.81,6.32,6,20.64,7.69,29.53,2-9,6.06-22.74,8.28-29.53l29.12-95H433.6l29.12,95c2.22,6.79,6.31,20.53,8.28,29.53,1.65-8.89,5.88-23.21,7.69-29.53l27.17-95h44.72a212.9,212.9,0,0,0-1.44-25.43c-22.56-9-48.83-15.49-78.21-19.26h-.17c-.38,0-37.37-3.37-49.63-3.4-47.83,1.75-86.4,6.25-128.36,22.7a206.06,206.06,0,0,0-1.45,25.4H336Z"/></svg>