<svg id="Ebene_1" data-name="Ebene 1" xmlns="http://www.w3.org/2000/svg" viewBox="0 0 524.41 595.28"><path d="M504.36,70.7l-1.57-7.25c-54.32-25-119.39-40.64-185.63-45.6,0-.06-41.22-3.64-55-3.68C174.06,17.42,94.66,29.86,21.57,63.45-8,199.8,51.23,382,148.62,495c34.46,40.27,73.9,71.18,113.56,86.1,39.66-14.92,79.11-45.83,113.56-86.1C471.66,384.41,530.21,204.36,504.36,70.7Zm-433,224.61C47.26,223.24,37,147.74,47,84.16,115.77,55.67,178.15,47,262.18,44c19.84,0,79.36,5.38,79.36,5.38v0C390.21,55.51,437,66.85,477.43,84.21c9.83,63.61-.3,139-24.42,211.1C418.66,395.71,356,502.82,262.18,549.38,168.42,502.84,105.7,395.71,71.36,295.31Z"/><path d="M504.36,70.7l-1.57-7.25c-54.32-25-119.39-40.64-185.63-45.6,0-.06-41.22-3.64-55-3.68C174.06,17.42,94.66,29.86,21.57,63.45-8,199.8,51.23,382,148.62,495c34.46,40.27,73.9,71.18,113.56,86.1,39.66-14.92,79.11-45.83,113.56-86.1C471.66,384.41,530.21,204.36,504.36,70.7Zm-433,224.61C47.26,223.24,37,147.74,47,84.16,115.77,55.67,178.15,47,262.18,44c19.84,0,79.36,5.38,79.36,5.38v0C390.21,55.51,437,66.85,477.43,84.21c9.83,63.61-.3,139-24.42,211.1C418.66,395.71,356,502.82,262.18,549.38,168.42,502.84,105.7,395.71,71.36,295.31Z"/><path d="M429.53,204.63,357.46,420.71H322.62s-57.07-173.55-60.42-187c-3.34,13.49-60.41,187-60.41,187H167L94.88,204.63c-9.93-30.74-18.74-49.1-35.2-56.24,1.54,44.25,10.68,92.81,27,141.73,18.3,53.49,42.87,103,71.05,143.13,31.1,44.3,66.21,77.2,104.45,97.9,38.25-20.7,73.35-53.6,104.45-97.91,28.18-40.14,52.75-89.63,71-143.13,16.34-48.82,25.48-97.38,27-141.72C448.27,155.53,439.46,173.89,429.53,204.63Z"/><path d="M129.4,135.4l42.48,148.53c2.84,9.88,9.46,32.27,12,46.18,3.08-14.07,9.47-35.56,12.94-46.18L242.4,135.4H282l45.55,148.53c3.47,10.62,9.86,32.11,12.94,46.18,2.58-13.91,9.2-36.3,12-46.18L395,135.4H465a327.42,327.42,0,0,0-2.25-39.79C427.42,81.5,386.33,71.38,340.38,65.5l-.27,0c-.58,0-58.44-5.26-77.61-5.31-74.82,2.74-135.13,9.77-200.77,35.5a326.39,326.39,0,0,0-2.27,39.74H129.4Z"/></svg>